<svg xmlns="http://www.w3.org/2000/svg" version="1.1" xmlns:xlink="http://www.w3.org/1999/xlink" xmlns:svgjs="http://svgjs.dev/svgjs" viewBox="0 0 800 800"><defs><filter id="uuunion-blur" x="-100%" y="-100%" width="400%" height="400%" color-interpolation-filters="sRGB">
        <feGaussianBlur in="SourceGraphic" stdDeviation="7.5 0" result="blur"></feGaussianBlur>
        <feDropShadow stdDeviation="34.46153846153847" in="blur" dx="28" dy="28" flood-color="hsl(316, 73%, 52%)" flood-opacity="1" x="0%" y="0%" width="100%" height="100%"></feDropShadow>
      </filter><filter id="uuunion-blur2" x="-100%" y="-100%" width="400%" height="400%" color-interpolation-filters="sRGB">
        <feGaussianBlur in="SourceGraphic" stdDeviation="7.5 0" result="blur"></feGaussianBlur>
        <feDropShadow stdDeviation="34.46153846153847" in="blur" dx="-28" dy="-28" flood-color="hsl(316, 73%, 52%)" flood-opacity="1" x="0%" y="0%" width="100%" height="100%"></feDropShadow>
      </filter><linearGradient gradientTransform="rotate(0, 0.5, 0.5)" x1="50%" y1="0%" x2="50%" y2="100%" id="uuunion-grad"><stop stop-color="hsl(37, 99%, 67%)" offset="10%"></stop><stop stop-color="hsl(316, 73%, 52%)" offset="90%"></stop></linearGradient><linearGradient gradientTransform="rotate(150, 0.5, 0.5)" x1="50%" y1="0%" x2="50%" y2="100%" id="uuunion-grad2"><stop stop-color="hsl(37, 99%, 67%)" offset="25%"></stop>
      <stop stop-color="hsl(316, 73%, 52%)" offset="100%"></stop>
      </linearGradient><linearGradient gradientTransform="rotate(333, 0.5, 0.5)" x1="50%" y1="0%" x2="50%" y2="100%" id="uuunion-grad3"><stop stop-color="hsl(37, 99%, 67%)" offset="0%"></stop><stop stop-color="hsl(316, 73%, 52%)" offset="75%"></stop></linearGradient></defs><path d="M-79.76 -77.61Q-64.84 -75.7 -49.92 -74.04 -34.99 -72.73 -20.07 -71.84 -5.15 -71.42 9.77 -71.51 24.69 -72.08 39.61 -73.12 54.54 -74.56 69.46 -76.32 84.38 -78.29 99.31 -80.36 114.23 -82.41 129.15 -84.31 144.08 -85.97 159 -87.28 173.92 -88.16 188.85 -88.57 203.77 -88.48 218.69 -87.89 233.62 -86.85 248.54 -85.4 263.46 -83.64 278.39 -81.67 293.31 -79.6 308.23 -77.56 323.16 -75.65 338.08 -74 353 -72.7 367.93 -71.82 382.85 -71.42 397.77 -71.52 412.7 -72.11 427.62 -73.16 442.54 -74.61 457.47 -76.37 472.39 -78.35 487.31 -80.42 502.24 -82.46 517.16 -84.37 532.08 -86.01 547.01 -87.31 561.93 -88.18 576.85 -88.57 591.78 -88.47 606.7 -87.87 621.62 -86.81 636.55 -85.36 651.47 -83.59 666.39 -81.61 681.32 -79.54 696.24 -77.5 711.16 -75.6 726.09 -73.96 741.01 -72.66 755.93 -71.8 770.86 -71.41 785.78 -71.53 800.71 -72.13 815.63 -73.2 830.55 -74.66 845.48 -76.43 861.39 -71.95 854.73 -50.51 854.68 -35.52 862.25 -20.54 875.15 -5.55 889.51 9.42 901.01 24.41 906.19 39.39 903.49 54.38 893.72 69.36 879.82 84.35 865.98 99.33 856.35 114.32 853.83 129.3 859.19 144.29 870.8 159.27 885.18 174.26 898 189.24 905.4 204.23 905.17 219.21 897.36 234.2 884.33 249.18 870 264.17 858.67 279.16 853.76 294.14 856.74 309.13 866.71 324.11 880.68 339.1 894.45 354.08 903.86 369.07 906.1 384.05 900.48 399.04 888.71 414.02 874.31 429.01 861.62 443.99 854.46 458.98 854.98 473.96 863.02 488.95 876.17 503.93 890.47 518.92 901.62 533.9 906.26 548.89 903 563.87 892.83 578.86 878.79 593.84 865.11 608.83 855.91 623.82 853.96 638.8 859.83 653.79 871.77 668.77 886.19 683.76 898.74 698.74 905.65 713.73 904.85 728.71 896.57 743.7 883.3 758.68 869.05 773.67 858.08 788.65 853.71 803.64 857.24 818.62 867.62 833.61 881.72 848.59 895.3 863.58 904.28 878.56 888.88 884.68 873.48 890.53 858.08 895.76 842.69 900.07 827.29 903.21 811.89 905 796.49 905.34 781.09 904.2 765.69 901.65 750.3 897.83 734.9 892.98 719.5 887.37 704.1 881.34 688.7 875.22 673.31 869.38 657.91 864.16 642.51 859.87 627.11 856.74 611.71 854.97 596.31 854.66 580.92 855.82 565.52 858.39 550.12 862.22 534.72 867.09 519.32 872.7 503.93 878.74 488.53 884.86 473.13 890.69 457.73 895.9 442.33 900.18 426.93 903.29 411.54 905.04 396.14 905.33 380.74 904.14 365.34 901.55 349.94 897.7 334.55 892.83 319.15 887.2 303.75 881.15 288.35 875.04 272.95 869.22 257.55 864.02 242.16 859.75 226.76 856.67 211.36 854.94 195.96 854.67 180.56 855.88 165.17 858.49 149.77 862.35 134.37 867.24 118.97 872.88 103.57 878.93 88.17 885.04 72.78 890.85 57.38 896.04 41.98 900.29 26.58 903.36 11.18 905.07 -4.2 905.31 -19.6 904.08 -35 901.45 -50.4 897.57 -65.8 892.67 -81.2 887.03 -80.75 871.95 -80.08 856.88 -79.38 841.81 -78.87 826.74 -78.7 811.66 -78.91 796.59 -79.45 781.52 -80.16 766.44 -80.81 751.37 -81.22 736.3 -81.26 721.23 -80.92 706.15 -80.3 691.08 -79.59 676.01 -79 660.94 -78.71 645.86 -78.8 630.79 -79.26 615.72 -79.94 600.65 -80.63 585.57 -81.13 570.5 -81.29 555.43 -81.06 540.35 -80.51 525.28 -79.81 510.21 -79.16 495.14 -78.76 480.06 -78.73 464.99 -79.09 449.92 -79.71 434.85 -80.43 419.77 -81.01 404.7 -81.29 389.63 -81.17 374.56 -80.71 359.48 -80.03 344.41 -79.34 329.34 -78.85 314.26 -78.7 299.19 -78.94 284.12 -79.5 269.05 -80.21 253.97 -80.85 238.9 -81.24 223.83 -81.25 208.76 -80.88 193.68 -80.25 178.61 -79.54 163.54 -78.97 148.47 -78.7 133.39 -78.83 118.32 -79.3 103.25 -79.99 88.17 -80.67 73.1 -81.16 58.03 -81.29 42.96 -81.03 27.88 -80.47 12.81 -79.76 -2.25 -79.12 -17.32 -78.74 -32.4 -78.75 -47.47 -79.12 -62.54 -79.76 -77.61" fill="url(#uuunion-grad)"></path><path d="M-79.76 -77.61Q-79.12 -62.54 -78.75 -47.47 -78.74 -32.4 -79.12 -17.32 -79.76 -2.25 -80.47 12.81 -81.03 27.88 -81.29 42.96 -81.16 58.03 -80.67 73.1 -79.99 88.17 -79.3 103.25 -78.83 118.32 -78.7 133.39 -78.97 148.47 -79.54 163.54 -80.25 178.61 -80.88 193.68 -81.25 208.76 -81.24 223.83 -80.85 238.9 -80.21 253.97 -79.5 269.05 -78.94 284.12 -78.7 299.19 -78.85 314.26 -79.34 329.34 -80.03 344.41 -80.71 359.48 -81.17 374.56 -81.29 389.63 -81.01 404.7 -70.78 407.26 -60.56 409.64 -50.34 411.76 -40.11 413.58 -29.89 415.04 -19.66 416.12 -0.5 416.93 2.81 416.99 15.73 410.18 28.66 402.72 41.52 394.66 54.27 386.09 66.86 377.11 79.23 367.82 91.36 358.36 103.25 348.86 114.91 339.45 126.36 330.26 137.67 321.39 148.9 312.96 160.14 305.04 171.46 297.69 182.97 290.95 194.74 284.83 206.85 279.32 219.36 274.38 232.31 269.94 245.69 265.94 259.5 262.26 273.68 258.8 288.15 255.45 302.83 252.09 317.58 248.6 332.28 244.88 346.78 240.82 360.96 236.34 374.68 231.38 387.86 225.89 400.41 219.85 412.29 213.27 423.49 206.15 434.06 198.56 444.06 190.54 453.61 182.17 462.86 173.56 471.96 164.79 481.11 155.97 490.5 147.21 500.31 138.6 510.71 130.24 521.86 122.21 533.84 114.57 546.74 107.37 560.55 100.65 575.26 94.41 590.76 88.64 606.91 83.32 623.55 78.41 640.45 73.83 657.38 69.51 674.08 65.39 690.33 61.35 705.88 57.32 720.55 53.2 734.18 48.9 746.67 44.37 757.99 39.52 768.15 34.31 777.26 28.71 785.46 22.69 792.95 16.26 800 9.43 785.51 -8.35 776.89 -26.14 777.65 -43.92 787.47 -61.71 802.37 -79.5 816.31 -97.29 823.63 -115.08 821.36 -132.87 806.07 -132.48 790.79 -132.52 775.5 -133 760.21 -133.87 744.92 -135.1 729.64 -136.61 714.35 -138.31 699.06 -140.11 683.77 -141.91 668.48 -143.59 653.2 -145.07 637.91 -146.25 622.62 -147.08 607.33 -147.5 592.05 -147.48 576.76 -147.04 561.47 -146.19 546.18 -144.98 530.89 -143.49 515.61 -141.8 500.32 -140 485.03 -138.2 469.74 -136.51 454.46 -135.01 439.17 -133.8 423.88 -132.95 408.59 -132.51 393.3 -132.49 378.02 -132.91 362.73 -133.73 347.44 -134.92 332.15 -136.39 316.87 -138.08 301.58 -139.87 286.29 -141.67 271 -143.38 255.71 -144.89 240.43 -146.12 225.14 -146.99 209.85 -147.47 194.56 -147.51 179.27 -147.12 163.99 -146.32 148.7 -145.16 133.41 -143.7 118.12 -142.03 102.84 -140.24 87.55 -138.44 72.26 -136.72 56.97 -135.2 41.68 -133.95 26.4 -133.04 11.11 -132.54 -4.17 -132.47 -19.46 -132.83 -34.74 -133.6 -50.03 -134.74 -65.32 -136.18 -80.61 -137.84 -95.9 -139.63 -111.18 -141.43 -126.47 -143.16 -136.75 -131.16 -118.89 -112.51 -109.02 -103.86 -99.17 -95.14 -89.4 -86.39 -79.76 -77.61" fill="url(#uuunion-grad2)" filter="url(#uuunion-blur)"></path><path d="M818.69 416.04Q828.92 414.93 839.14 413.43 849.36 411.58 859.59 409.44 869.81 407.04 880.04 404.47 889.48 407.9 874.31 429.01 861.62 443.99 854.46 458.98 854.98 473.96 863.02 488.95 876.17 503.93 890.47 518.92 901.62 533.9 906.26 548.89 903 563.87 892.83 578.86 878.79 593.84 865.11 608.83 855.91 623.82 853.96 638.8 859.83 653.79 871.77 668.77 886.19 683.76 898.74 698.74 905.65 713.73 904.85 728.71 896.57 743.7 883.3 758.68 869.05 773.67 858.08 788.65 853.71 803.64 857.24 818.62 867.62 833.61 881.72 848.59 895.3 863.58 904.28 878.56 890.15 884.18 876.02 889.6 861.89 894.54 847.75 898.77 833.62 902.07 819.49 904.3 805.36 905.33 791.23 905.11 777.1 903.67 762.97 901.06 748.84 897.41 734.71 892.92 720.58 887.78 706.44 882.27 692.31 876.64 678.18 871.18 664.05 866.15 649.92 861.8 635.79 858.34 621.66 855.95 607.53 854.74 593.4 854.77 579.26 856.03 565.13 858.47 551 861.97 536.87 866.36 522.74 871.41 508.61 876.88 494.48 882.51 480.35 888.01 466.22 893.12 452.09 897.59 437.95 901.19 423.82 903.75 409.69 905.15 395.56 905.31 381.43 904.23 367.3 901.95 353.17 898.6 339.04 894.34 324.91 889.37 310.77 883.94 296.64 878.32 282.51 872.78 268.38 867.59 254.25 863.02 240.12 859.27 225.99 856.55 211.86 854.97 197.73 854.63 183.6 855.52 169.46 857.62 155.33 860.82 141.2 864.96 127.07 869.84 112.94 875.22 98.81 880.83 84.68 886.4 70.55 891.65 56.42 896.34 42.28 900.22 28.15 903.1 6.86 900.04 -0.58 885.04 -0.93 874.87 -1.29 864.69 -1.6 854.52 -1.84 844.34 -1.71 829.08 -0.97 824 11.27 817.15 23.66 809.37 36.22 800.72 48.98 791.3 61.95 781.26 75.1 770.74 88.42 759.94 101.84 749.02 115.31 738.19 128.76 727.63 142.1 717.5 155.25 707.97 168.15 699.16 180.73 691.16 192.96 684.04 204.8 677.82 216.28 672.5 227.42 668.03 238.27 664.32 248.91 661.28 259.45 658.75 270 656.59 280.68 654.63 291.6 652.69 302.9 650.59 314.66 648.18 326.97 645.3 339.87 641.81 353.37 637.62 367.46 632.65 382.08 626.84 397.13 620.2 412.5 612.76 428.03 604.55 443.56 595.68 458.92 586.26 473.92 576.41 488.42 566.3 502.26 556.07 515.35 545.89 527.61 535.93 539.02 526.32 549.6 517.2 559.42 508.68 568.6 500.84 577.3 493.74 585.72 487.41 594.06 481.84 602.57 476.99 611.47 472.81 620.97 469.19 631.27 466.03 642.52 463.19 654.82 460.54 668.22 457.92 682.71 455.19 698.21 452.21 714.6 448.84 731.7 444.99 749.26 440.54 767.02 435.45 784.7 429.68 802.02 423.2 818.69 416.04 818.69 416.04 818.69 416.04" fill="url(#uuunion-grad3)" filter="url(#uuunion-blur2)"></path>
      </svg>